<?xml version="1.0" encoding="UTF-8" standalone="no"?>
<svg
   xmlns:dc="http://purl.org/dc/elements/1.1/"
   xmlns:cc="http://creativecommons.org/ns#"
   xmlns:rdf="http://www.w3.org/1999/02/22-rdf-syntax-ns#"
   xmlns:svg="http://www.w3.org/2000/svg"
   xmlns="http://www.w3.org/2000/svg"
   xmlns:xlink="http://www.w3.org/1999/xlink"
   xmlns:sodipodi="http://sodipodi.sourceforge.net/DTD/sodipodi-0.dtd"
   xmlns:inkscape="http://www.inkscape.org/namespaces/inkscape"
   width="134.99982mm"
   height="137.55009mm"
   viewBox="0 0 134.99982 137.55009"
   version="1.1"
   id="svg8"
   inkscape:version="1.0.2 (e86c870879, 2021-01-15)"
   sodipodi:docname="crustula.svg"
   inkscape:export-filename="/home/georgesk/developpement/crustula/Crustula/images/crustula.png"
   inkscape:export-xdpi="24.82"
   inkscape:export-ydpi="24.82">
  <defs
     id="defs2" />
  <sodipodi:namedview
     id="base"
     pagecolor="#ffffff"
     bordercolor="#666666"
     borderopacity="1.0"
     inkscape:pageopacity="0.0"
     inkscape:pageshadow="2"
     inkscape:zoom="0.7"
     inkscape:cx="430.77154"
     inkscape:cy="454.38767"
     inkscape:document-units="mm"
     inkscape:current-layer="g847"
     inkscape:document-rotation="0"
     showgrid="false"
     fit-margin-top="2"
     fit-margin-right="2"
     fit-margin-bottom="2"
     fit-margin-left="2"
     inkscape:window-width="1607"
     inkscape:window-height="959"
     inkscape:window-x="26"
     inkscape:window-y="0"
     inkscape:window-maximized="0" />
  <metadata
     id="metadata5">
    <rdf:RDF>
      <cc:Work
         rdf:about="">
        <dc:format>image/svg+xml</dc:format>
        <dc:type
           rdf:resource="http://purl.org/dc/dcmitype/StillImage" />
        <dc:title />
      </cc:Work>
    </rdf:RDF>
  </metadata>
  <g
     inkscape:label="Calque 1"
     inkscape:groupmode="layer"
     id="layer1"
     transform="translate(-43.442936,-113.98845)">
    <g
       id="g847"
       transform="rotate(165.79434,104.89904,139.63306)">
      <path
         id="path849-0"
         style="fill:#ffe680;stroke:#000000;stroke-width:3.77953;stroke-linecap:round;stroke-linejoin:round;stroke-miterlimit:4;stroke-dasharray:none"
         d="M 419.31055,449.91016 A 245.66929,245.66929 0 0 0 173.64258,695.57812 245.66929,245.66929 0 0 0 419.31055,941.24805 245.66929,245.66929 0 0 0 664.98047,695.57812 245.66929,245.66929 0 0 0 419.31055,449.91016 Z m 0,154.96093 a 90.708661,90.708661 0 0 1 90.70898,90.70703 90.708661,90.708661 0 0 1 -90.70898,90.70899 90.708661,90.708661 0 0 1 -90.70899,-90.70899 90.708661,90.708661 0 0 1 90.70899,-90.70703 z"
         transform="matrix(-0.25649267,-0.06492958,0.06492958,-0.25649267,172.32399,300.73885)" />
      <path
         id="path833"
         style="fill:none;stroke:none;stroke-width:6.35;stroke-linecap:round;stroke-linejoin:round"
         d="m 136.80596,130.99055 a 32,32 0 0 1 -32,32 32,32 0 0 1 -31.999998,-32 32,32 0 0 1 31.999998,-31.999995 32,32 0 0 1 32,31.999995 z" />
      <text
         xml:space="preserve"
         style="font-style:normal;font-variant:normal;font-weight:normal;font-stretch:normal;font-size:28.2222px;line-height:19.09px;font-family:FreeSans;-inkscape-font-specification:'FreeSans, Normal';font-variant-ligatures:normal;font-variant-caps:normal;font-variant-numeric:normal;font-variant-east-asian:normal;letter-spacing:0px;word-spacing:0px;writing-mode:lr-tb;fill:#000000;stroke:#000000;stroke-width:0.264583px;stroke-linecap:butt;stroke-linejoin:miter;stroke-opacity:1"
         id="text837"
         x="-138.84544"
         y="33.567986"
         transform="matrix(0.94756223,-0.48949348,0.48949348,0.94756223,-53.102659,20.659915)"><textPath
           xlink:href="#path833"
           id="textPath840"><tspan
             id="tspan835"
             style="font-style:normal;font-variant:normal;font-weight:normal;font-stretch:normal;font-size:28.2222px;font-family:FreeSans;-inkscape-font-specification:'FreeSans, Normal';font-variant-ligatures:normal;font-variant-caps:normal;font-variant-numeric:normal;font-variant-east-asian:normal;fill:#000000;stroke-width:0.264583px">CRVSTVLA</tspan></textPath></text>
      <circle
         style="fill:#000000;stroke:#000000;stroke-width:1;stroke-linecap:round;stroke-linejoin:round;stroke-miterlimit:4;stroke-dasharray:none"
         id="path874"
         cx="-129.91393"
         cy="-21.128166"
         transform="rotate(-165.79434)"
         r="3" />
    </g>
  </g>
</svg>
